/* XPM */
static char *result[] = {
/* columns rows colors chars-per-pixel */
"32 32 2 1 ",
"  c #109400",
". c #8CD600",
/* pixels */
". . . . . . . . . . . . . . . . ",
" . . . . . . . . . . . . . . . .",
". . . . . . . . . . . . . . . . ",
" . . . . . . . . . . . . . . . .",
". . . . . . . . . . . . . . . . ",
" . . . . . . . . . . . . . . . .",
". . . . . . . . . . . . . . . . ",
" . . . . . . . . . . . . . . . .",
". . . . . . . . . . . . . . . . ",
" . . . . . . . . . . . . . . . .",
". . . . . . . . . . . . . . . . ",
" . . . . . . . . . . . . . . . .",
". . . . . . . . . . . . . . . . ",
" . . . . . . . . . . . . . . . .",
". . . . . . . . . . . . . . . . ",
" . . . . . . . . . . . . . . . .",
". . . . . . . . . . . . . . . . ",
" . . . . . . . . . . . . . . . .",
". . . . . . . . . . . . . . . . ",
" . . . . . . . . . . . . . . . .",
". . . . . . . . . . . . . . . . ",
" . . . . . . . . . . . . . . . .",
". . . . . . . . . . . . . . . . ",
" . . . . . . . . . . . . . . . .",
". . . . . . . . . . . . . . . . ",
" . . . . . . . . . . . . . . . .",
". . . . . . . . . . . . . . . . ",
" . . . . . . . . . . . . . . . .",
". . . . . . . . . . . . . . . . ",
" . . . . . . . . . . . . . . . .",
". . . . . . . . . . . . . . . . ",
" . . . . . . . . . . . . . . . ."
};
