/* XPM */
static char *_26314ce90d44c389b6ddc6ed70130a6Sli64fKFj0XO5bXh[] = {
/* columns rows colors chars-per-pixel */
"32 32 4 1 ",
"  c None",
". c #109400",
"X c #8CD600",
"o c #BDE573",
/* pixels */
"                               X",
"                              Xo",
"                             Xo.",
"                            Xo.X",
"                           XooX.",
"                          XooX.X",
"                         XooX.X.",
"                        Xooo.X.X",
"                       Xooo.X.X.",
"                      XooooX.X.X",
"                     XooooX.X.X.",
"                    XooooX.X.X.X",
"                   XooooX.X.X.X.",
"                  XooooX.X.X.X.X",
"                 Xooooo.X.X.X.X.",
"                Xooooo.X.X.X.X.X",
"               XooooooX.X.X.X.X.",
"              XooooooX.X.X.X.X.X",
"             XooooooX.X.X.X.X.X.",
"            XooooooX.X.X.X.X.X.X",
"           XooooooX.X.X.X.X.X.X.",
"          XooooooX.X.X.X.X.X.X.X",
"         XooooooX.X.X.X.X.X.X.X.",
"        XooooooX.X.X.X.X.X.X.X.X",
"       XooooooX.X.X.X.X.X.X.X.X.",
"      XooooooX.X.X.X.X.X.X.X.X.X",
"     Xooooo.X.X.X.X.X.X.X.X.X.X.",
"    XooooX.X.X.X.X.X.X.X.X.X.X.X",
"   XooooX.X.X.X.X.X.X.X.X.X.X.X.",
"  Xooo.X.X.X.X.X.X.X.X.X.X.X.X.X",
" XooX.X.X.X.X.X.X.X.X.X.X.X.X.X.",
"XooX.X.X.X.X.X.X.X.X.X.X.X.X.X.X"
};
