/* XPM */
static char *_de3ca2987944d8fdeabff6f6ced2da4CFFQsftBm47vHYqT[] = {
/* columns rows colors chars-per-pixel */
"32 32 8 1 ",
"  c None",
". c #522100",
"X c #664733",
"o c #9C4A00",
"O c #CC6A14",
"+ c #E5968A",
"@ c gray80",
"# c white",
/* pixels */
"                                ",
"                                ",
"                                ",
"                                ",
"                                ",
"                                ",
"                                ",
"                                ",
"     +                          ",
"    +o@@@@@@@@@@@@@@@@@@@@      ",
"    Oo@@################@@@     ",
"    Oo@#########+########@@     ",
"    Oo#########+O+#######@@     ",
"    Oo@#####X+OOOOO+X#####@     ",
"    Oo#@#####X+OOO+X#####@@     ",
"    Oo@#@#@###.O+O.###@#@#@     ",
"    Oo#@#@#@#.O+.+O.#@#@#@@     ",
"    Oo@#@#@#@XX.@.XX@#@#@#@     ",
"    Oo@@#@#@#.#@#@#.#@#@#@@     ",
"    Oo@@@@@@@@@@@@@@@@@@@@@     ",
"    Oo@@@@@@@@@@@@@@@@@@@@@     ",
"    Oo@                   @     ",
"    Oo                          ",
"    Oo                          ",
"    Oo                          ",
"    Oo                          ",
"    Oo                          ",
"    Oo                          ",
"    Oo                          ",
"    Oo                          ",
"    Oo                          ",
"    Oo                          "
};
