/* XPM */
static char *_1a20cb22b0e4a9688f2f5b4ef3431ee3HcKeoNYqEj3ELCL[] = {
/* columns rows colors chars-per-pixel */
"32 32 7 1 ",
"  c None",
". c black",
"X c gray20",
"o c #993600",
"O c #D64A00",
"+ c #E5968A",
"@ c #FFCEC6",
/* pixels */
"            OOOOOOOO            ",
"           OOO++++OOO           ",
"          OOO++++++OOO          ",
"         OOOOO++++OOOOO         ",
"        OXXXOOO++OOOXXXO        ",
"       OX...XOOOOOOX...XO       ",
"      OX.XX..XOOOOX.XXX.XO      ",
"     OOOO@.XX.X..X.X.X@OOOO     ",
"    OOOO@...XX.XX.X...X@OOOO    ",
"    OOOO@@..X@X..X@@..X@OOOO    ",
"   OOOOO@.@.X@OOOO@.@.X@OOOOO   ",
"  OOOOOO@...X@OOOO@...X@OOOOOO  ",
" OOO+OOO@@.X@@OOOO@@.X@@OOO+OOO ",
"OO++++OOX@@@@XOOOOX@@@@XOO++++OO",
"OOO++++OOX@@XOOOOOOX@@XOO++++OOO",
"oOOOOOOOOOXXOOOOOOOOXXOOOOOOOOOo",
"oooooOOOOOOO@XXXXXX@OOOOOOOooooo",
"oooooooooOOXXoOOOOoXXOOooooooooo",
"ooooooooooXooooooooooXoooooooooo",
"oooooooooooooooooooooooooooooooo",
"oooooooooooooooooooooooooooooooo",
" oooooooo++++++++++++++oooooooo ",
"  ooooo++++++@+@@@+@+@+++ooooo  ",
"       +++++@+@@@@@+@+@++       ",
"      +++++@+@@@@@+@+@+@++      ",
"      ++++@+@@@@@+@+@+@+++      ",
"   @@@+++++@+@@@+@+@++++++      ",
"  @XXX@+++@+@+@+@+@++@@@++      ",
" @XX.XX@+++@+@+@+@+@@X.X@@@     ",
" @XXX.XXX+++@+@+++@X..X.XX@@    ",
" @XXXX.X.X+++++++@..X..X.XX@    ",
"  @.......X+++++@..........@    "
};
