/* XPM */
static char *result[] = {
/* columns rows colors chars-per-pixel */
"32 32 254 2 ",
"   c #784101",
".  c #7C4301",
"X  c #7E4302",
"o  c #7A4204",
"O  c #7A4307",
"+  c #70460C",
"@  c #794209",
"#  c #7B4409",
"$  c #7C4408",
"%  c #7E4508",
"&  c #79430E",
"*  c #7F430D",
"=  c #7B450D",
"-  c #7B460D",
";  c #7A440E",
":  c #7B450E",
">  c #7C450D",
",  c #7D450D",
"<  c #7E450D",
"1  c #7E460D",
"2  c #7F460D",
"3  c #7C450E",
"4  c #7D450E",
"5  c #7E450F",
"6  c #7B4A0B",
"7  c #7F480E",
"8  c #7D4610",
"9  c #7E4610",
"0  c #AE0000",
"q  c #AF0000",
"w  c #AD0E00",
"e  c #AE0F00",
"r  c #B30000",
"t  c #B40000",
"y  c #B50000",
"u  c #B40100",
"i  c #B10400",
"p  c #B40500",
"a  c #B20800",
"s  c #B20C00",
"d  c #B30C00",
"f  c #B10E00",
"g  c #B50D00",
"h  c #B40E00",
"j  c #AF1000",
"k  c #AA1600",
"l  c #B01000",
"z  c #B21000",
"x  c #B31000",
"c  c #B21100",
"v  c #B31100",
"b  c #B11200",
"n  c #B11300",
"m  c #B21200",
"M  c #B31200",
"N  c #B21300",
"B  c #B41100",
"V  c #B61100",
"C  c #B41200",
"Z  c #B41300",
"A  c #B51301",
"S  c #B61301",
"D  c #B21400",
"F  c #B61401",
"G  c #B71501",
"H  c #B51700",
"J  c #B71602",
"K  c #B11407",
"L  c #B91001",
"P  c #B81300",
"I  c #BB1102",
"U  c #B81401",
"Y  c #B81501",
"T  c #BA1701",
"R  c #BC1402",
"E  c #B31903",
"W  c #B51903",
"Q  c #B51B05",
"!  c #B81904",
"~  c #B31E14",
"^  c #FE2700",
"/  c #FF2903",
"(  c #FF2813",
")  c #FF2F13",
"_  c #FF2914",
"`  c #FA2F17",
"'  c #FF291A",
"]  c #FF2A1B",
"[  c #FB3017",
"{  c #FF3015",
"}  c #FC3017",
"|  c #FF3017",
" . c #FB3018",
".. c #FB3218",
"X. c #FA3219",
"o. c #FD3118",
"O. c #FF3018",
"+. c #FE3118",
"@. c #FF3118",
"#. c #FE3119",
"$. c #FC3319",
"%. c #FE3218",
"&. c #FF3218",
"*. c #FF3219",
"=. c #FE3319",
"-. c #FF311A",
";. c #FF321A",
":. c #FE321B",
">. c #FA341B",
",. c #FD3418",
"<. c #FF341A",
"1. c #FF351D",
"2. c #FF3520",
"3. c #FE3622",
"4. c #FF3824",
"5. c #FF3927",
"6. c #844501",
"7. c #814507",
"8. c #804608",
"9. c #804609",
"0. c #824609",
"q. c #81460A",
"w. c #80460B",
"e. c #81440C",
"r. c #83450C",
"t. c #83450D",
"y. c #80460C",
"u. c #80460D",
"i. c #81460D",
"p. c #80470D",
"a. c #81470D",
"s. c #82460D",
"d. c #82470D",
"f. c #83470D",
"g. c #80460E",
"h. c #81470F",
"j. c #82470F",
"k. c #84470D",
"l. c #844B0D",
"z. c #8B490C",
"x. c #8E4D0D",
"c. c #834912",
"v. c #8A4B14",
"b. c #8B4D18",
"n. c #8A4F20",
"m. c #8A5022",
"M. c #C16000",
"N. c #C36000",
"B. c #C26100",
"V. c #C36100",
"C. c #C36201",
"Z. c #C46000",
"A. c #C46100",
"S. c #C66100",
"D. c #C46200",
"F. c #C56200",
"G. c #C46201",
"H. c #C66200",
"J. c #C76200",
"K. c #C66300",
"L. c #C56303",
"P. c #C76400",
"I. c #C56504",
"U. c #C86401",
"Y. c #CA6401",
"T. c #CA6501",
"R. c #CB6601",
"E. c #CD6600",
"W. c #CD6700",
"Q. c #C86404",
"!. c #C86506",
"~. c #C86507",
"^. c #CC6707",
"/. c #CF6801",
"(. c #C6650C",
"). c #C9650A",
"_. c #CA660A",
"`. c #C8650D",
"'. c #C8660F",
"]. c #CA660E",
"[. c #CA670E",
"{. c #CB670E",
"}. c #CC670F",
"|. c #C76510",
" X c #C86610",
".X c #C96610",
"XX c #C96611",
"oX c #CB6710",
"OX c #C96714",
"+X c #CB6A1D",
"@X c #D06C1A",
"#X c #FF4028",
"$X c #FF534A",
"%X c #FF8F55",
"&X c #FC9157",
"*X c #FD9157",
"=X c #FE9156",
"-X c #FD9257",
";X c #FE9257",
":X c #FF9357",
">X c #FC9258",
",X c #FD9258",
"<X c #FC9259",
"1X c #FD9259",
"2X c #FE9258",
"3X c #FE9359",
"4X c #FF9359",
"5X c #FD935A",
"6X c #FE925A",
"7X c #FE935A",
"8X c #FF9459",
"9X c #FF945A",
"0X c #FF955A",
"qX c #FF945B",
"wX c #FF955B",
"eX c #FF965A",
"rX c #FF965B",
"tX c #FF955C",
"yX c #FE955D",
"uX c #FF965C",
"iX c #FF975D",
"pX c #FF965E",
"aX c #FF975F",
"sX c #FF985F",
"dX c #FF9960",
"fX c #FF9B61",
"gX c #FFA170",
"hX c #FFA97B",
"jX c #FFAA7B",
"kX c #FEAA7D",
"lX c #FDAA7E",
"zX c #FDAB7F",
"xX c #FEAB7F",
"cX c #FFAB7F",
"vX c #FFAC7F",
"bX c #FFAB80",
"nX c #FFAC80",
"mX c #FEAC81",
"MX c #FFAC81",
"NX c #FFAD81",
"BX c #FEAE81",
"VX c #FFAE81",
"CX c #FFAD82",
"ZX c #FFAE82",
"AX c #FFAF82",
"SX c #FFAF83",
"DX c #FFB083",
"FX c #FFB184",
"GX c #CBCCCC",
"HX c #CDCFCF",
"JX c #FFFEFE",
"KX c #FEFFFF",
"LX c white",
"PX c None",
/* pixels */
"PXPXPXPXPXPXPXPXPXPXPXPXPXPX@.@.{ 2.4.) PXPXPXPXPXPXPXPXPXPXPXPX",
"PXPXPXPXPXPXPXPXPXPX@.@.@.@.+.M 3.GXLX5.@.PXPXPXPXPXPXPXPXPXPXPX",
"PXPXPXPXPXPXPXPX@.@.+.+.+.m c @.GXp / LX@.PXPXPXPXPXPXPXPXPXPXPX",
"PXPXPXPXPXPXPX@.@.v m m m M A C t ;.:.^ +.@.@.@.@.@.PXPXPXPXPXPX",
"PXPXPXPXPXPX&.c c M M M v v @.O.-.a c K f c a c z c M PXPXPXPXPX",
"PXPXPXPXPXPX+.S B x v v D N l n E ~ N Q W N ~ N H C PXPXPXPXPXPX",
"PXPXPXPXPXPXz %.N M N D 1 w.c.Q.uXHX8.wXuX8.HX9.K.PXPXPXPXPXPXPX",
"PXPXPXPXPXPXPX- 8. Xa.2 q.!.0XtXbXJX'.9XbX'.JX`.PXPXPXPXPXPXPXPX",
"PXPXPXPXPXPXf.f.XXnXJ.u.~.9XqXnXqXjXNX9X9XnXhXNXDXPXPXPXPXPXPXPX",
"PXPXPXPXPXPXu.P.NX4X|.7.wXwXMXnXxX5X;X3XnX4XqXcXMXAXPXPXPXPXPXPX",
"PXPXPXPXPXPXa.D.-XqXNXXX,XnXnXlXN.# V.V.2X3XwXwXvXMXFXPXPXPXPXPX",
"PXPXPXPXPXPXu.< F.3XnXNX(.9XcXH.g.h.5 5 B.B.<XzX-XvXMXPXPXPXPXPX",
"PXPXPXPXPXPXPXd.L.A.cXnXZXNXqXpX_.0.0.0.y.y.. S.OXZ.PXPXPXPXPXPX",
"PXPXPXPXPXPXPXu.2 .X8XvXcXcXnXnXtX{.].[.{.{.oXsXCXPXPXPXPXPXPXPX",
"PXPXPXPXPXPXPXPXu.9X1X&X*X;X&X&X>X5X9X6X5X7X9XNXPXPXPXPXPXPXPXPX",
"PXPXPXPXPXPXPXPXPXM.q y s B.O O o   M.i t 0 M.PXPXPXPXPXPXPXPXPX",
"PXPXPXPXPXPXPXE.R.8 ! =.I.9 j.j.j.j.9 I.=.! 8 ^.PXPXPXPXPXPXPXPX",
"PXPXPXPXPXW.W.G.> r.*.Z * p.2 2 2 2 p.* Z *.r.> T.PXPXPXPXPXPXPX",
"PXPXPXPXW.G.G., i.h [ #.h e.t.t.t.t.e.h +. .h i.= T.T.PXPXPXPXPX",
"PXPXPXW.C.4 4 i.2 b u r G L d g g d L G r t b 2 i.: ; T.W.PXPXPX",
"PXPX@XF.@ X X u.e.U #X$X*.*.J b b J *.*.#X$XU e.u.X 6.% F.@XPXPX",
"PXPXSX).b.m.n.$ I *.BXKX+.+.*.Y Y *.+.+.BXKX*.I $ n.+X}.).SXPXPX",
"PXPXxXaXrXNXSXv.o.@.%XgX@.@.+.*.*.+.@.@.%XgX@.o.v.SXNXwXaXxXPXPX",
"PXPXAXxXyX=XkXfXA ` _ ' @.` @.@.@.@.` @.( ] ` A fXkX=XyXxXAXPXPX",
"PXPXbXiXVXdXeXmX&.F X.1.} F [ | | [ F } <.>.F &.mXeXdXVXiXbXPXPX",
"PXPXPXCX:XCX0XPXw +.F ` j @.z e e z @.j ` F +.w PX0XCX:XCXPXPXPX",
"PXPXPXPXPXPXPXPXPXV +.F m w Z PXPXZ w m F +.V PXPXPXPXPXPXPXPXPX",
"PXPXPXPXPXPXPXPXT ,.V O.R P PXPXPXPXP R O.V ,.T PXPXPXPXPXPXPXPX",
"PXPXPXPXPXPXPXPXl.+ $.k ..M PXPXPXPXM ..k $.+ l.PXPXPXPXPXPXPXPX",
"PXPXPXPXPXPXPXx.F.z.6 7 6 PXPXPXPXPXPX6 7 6 z.F.x.PXPXPXPXPXPXPX",
"PXPXPXPXPXi./.K.3 U.Y.k.Y.PXPXPXPXPXPXY.k.Y.U.3 K./.i.PXPXPXPXPX",
"PXPXPXPXPXPX& & s.& & i.& PXPXPXPXPXPX& i.& & s.& & PXPXPXPXPXPX"
};
