/* XPM */
static char *_0516c9c01634088d3ce11b959c41a5eL77XMeEQq8dJO547[] = {
/* columns rows colors chars-per-pixel */
"32 32 7 1 ",
"  c None",
". c gray20",
"X c #522100",
"o c #664733",
"O c #9C4A00",
"+ c #E5968A",
"@ c #FFCEC6",
/* pixels */
"                                ",
"                                ",
"             ++++oo..           ",
"           +++@@@OOoo..         ",
"          +@@@@@X@XOoo..        ",
"         +@@@@@XXX@@Ooo..       ",
"        +@@@@@OOX@@@@Oo..       ",
"        +@@@OO@@OO@@@Ooo..      ",
"        +@@O..@O..O@@Ooo..      ",
"       +@@@O..@O..O@@@Ooo..     ",
"       +@@O..o@O...O@@Ooo..     ",
"       +@@O.oo@O..oOX@Ooo..     ",
"      +@@@O.oX@O..oOXX@Ooo..    ",
"      +@@O..oX@O..X.OX@Ooo..    ",
"      +@@O..oX@O..X.OX@Ooo..    ",
"      +@@O..oX@O..X.OXXOoo..    ",
"      +@@O..oX@O..X.OXXOoo..    ",
"      +@@O..oX@O..X.OX@Ooo..    ",
"      +@@O..oX@O..o.OX@Ooo..    ",
"      +@@@O.oo@O..oOXX@Ooo..    ",
"       +@@O.oo@O..oOXXOoo..     ",
"       +@@O..o@O...OXXOoo..     ",
"       +@@@O..@O..OXX@Ooo..     ",
"        +@@O..OO..OXXOoo..      ",
"        +@@@OO..OOXXXOoo..      ",
"        +@@@@@OO@XXX@Oo..       ",
"         +@@@XX@@XX@Ooo..       ",
"          +@X@@@XX@Ooo..        ",
"           +++@@XOOoo..         ",
"             OOOOoo...          ",
"                                ",
"                                "
};
