/* XPM */
static char *_36d732800794372e3377f1e03583d945ddkls9yZ10FW0fR[] = {
/* columns rows colors chars-per-pixel */
"32 32 11 1 ",
"  c None",
". c black",
"X c gray20",
"o c #522100",
"O c #664733",
"+ c #9C4A00",
"@ c #CC7E00",
"# c #CC6A14",
"$ c #E69C21",
"% c #E5968A",
"& c #FFCEC6",
/* pixels */
"                                ",
"                                ",
"              &&&&&&            ",
"             &&%%%%%&           ",
"             &%%$$$$.           ",
"             &%$$$$$.           ",
"             &$$$$$$.           ",
"             &$$@@@@.           ",
"             &$@@@@@.           ",
"             &$@@@@@.           ",
"             &@@@@@@.           ",
"             &@@####.           ",
"             &@#####.           ",
"             &@#####.           ",
"             &######.           ",
"             &######.           ",
"             &++++++.           ",
"             &++++++.           ",
"             &+++++O.           ",
"             &+++++O.           ",
"             &++++OO.           ",
"             &OOOOOO.           ",
"             &OOOOOX.           ",
"             &OOOOOX.           ",
"             &OOOOXX.           ",
"             &XXXXXX.           ",
"             &XXXXXo.           ",
"             &XXXXoo.           ",
"             &ooooo..           ",
"              ......            ",
"                                ",
"                                "
};
