/* XPM */
static char *_8c8188b1afc4952c147c44c0d5e0a8faMzIurvkBt6AHCys[] = {
/* columns rows colors chars-per-pixel */
"32 32 7 1 ",
"  c None",
". c gray20",
"X c #522100",
"o c #664733",
"O c #9C4A00",
"+ c #E5968A",
"@ c #FFCEC6",
/* pixels */
"                                ",
"                                ",
"           @@++oooo             ",
"         @@++OO...ooo           ",
"        @@++OX.X.....o          ",
"       @@++O..XXX.....o         ",
"       @@+O....XOO.....o        ",
"      @@++O...OO..OO...o        ",
"      @@++O..O..O...O..o        ",
"     @@++O...O..O...O...o       ",
"     @@++O..O...O.o..O..o       ",
"     @@++O.XOo..O.oo.O..o       ",
"    @@++O.XXOo..O.Xo.O...o      ",
"    @@++O.XO.X..O.Xo..O..o      ",
"    @@++O.XO.X..O.Xo..O..o      ",
"    @@++OXXO.X..O.Xo..O..o      ",
"    @@++OXXO.X..O.Xo..O..o      ",
"    @@++O.XO.X..O.Xo..O..o      ",
"    @@++O.XO.o..O.Xo..O..o      ",
"    @@++O.XXOo..O.oo.O...o      ",
"     @@++OXXOo..O.oo.O..o       ",
"     @@++OXXO...O.o..O..o       ",
"     @@++O.XXO..O...O...o       ",
"      @@++OXXO..OO..O..o        ",
"      @@++OXXXOO..OO...o        ",
"       @@+O.XXX.OO.....o        ",
"       @@++O.XX..XX...o         ",
"        @@++O.XX...X.o          ",
"         @@++OOX..ooo           ",
"          @@@++OOOO             ",
"                                ",
"                                "
};
