/* XPM */
static char *e49fdd66e5704f088cb8258e89799e46SFspoR4Timyb6DRo[] = {
/* columns rows colors chars-per-pixel */
"32 32 6 1 ",
"  c None",
". c #9C4A00",
"X c #CC7E00",
"o c #CC6A14",
"O c #E5968A",
"+ c #FFCEC6",
/* pixels */
"                                ",
"                                ",
"            ++OOOOOO            ",
"         ++OOOooooooOOO         ",
"        ++O....ooooooooO        ",
"      ++OOoo....ooooooooOO      ",
"      ++Oooooo.OOOOooooooO      ",
"     ++OoooooOOO...OOoooooO     ",
"     ++OoooOO..O.....OooooO     ",
"    ++Oo.ooO...O...XX.OooooO    ",
"    ++O...O.X..O.....X.OoooO    ",
"    ++O...OX...O......XOoooO    ",
"   ++Oo...OX...O......XOooooO   ",
"   ++Oo..O.....O........OoooO   ",
"   ++O...O.....O........OoooO   ",
"   ++O...O.....O........OoooO   ",
"   ++O...O.....O........OoooO   ",
"   ++O...O.....O......X.OoooO   ",
"   ++O...O.X...O.....XX.OoooO   ",
"   ++Oo...OXX..O...XXXXOooooO   ",
"    ++O...OXX..O...XXXXOoooO    ",
"    ++O...O.X..O...XXX.OoooO    ",
"    ++Oo...O...O...XX.OooooO    ",
"     ++O...OO..OOOO..OooooO     ",
"     ++Oo..ooOO....OOoooooO     ",
"      ++Oo.ooooOOOOooooooO      ",
"      ++OOoooooo..ooooooOO      ",
"        ++O.oooo...ooooO        ",
"         ++OOOoooo..OOO         ",
"            ++OOOOOO            ",
"                                ",
"                                "
};
